HIERARCHY
ROOT Hips
{
	OFFSET 0.000000 0.000000 0.000000
	CHANNELS 6 Xposition Yposition Zposition Xrotation Yrotation Zrotation
	JOINT LeftUpLeg_virtual
	{
		OFFSET 0.000000 0.000000 0.000000
		CHANNELS 3 Xrotation Yrotation Zrotation
		JOINT LeftUpLeg
		{
			OFFSET 13.026900 -6.336304 -1.092800
			CHANNELS 3 Xrotation Yrotation Zrotation
			JOINT LeftLeg
			{
				OFFSET 0.524474 -46.096886 9.782700
				CHANNELS 3 Xrotation Yrotation Zrotation
				JOINT LeftFoot
				{
					OFFSET -0.524474 -53.427422 -12.948200
					CHANNELS 3 Xrotation Yrotation Zrotation
					JOINT LeftToeBase
					{
						OFFSET 0.192200 -14.009700 16.364100
						CHANNELS 3 Xrotation Yrotation Zrotation
						JOINT LeftToe_End
						{
							OFFSET -1.784700 -0.561700 9.474800
							CHANNELS 3 Xrotation Yrotation Zrotation
							End Site
							{
								OFFSET 0 0 0
							}
						}
					}
				}
			}
		}
	}
	JOINT RightUpLeg_virtual
	{
		OFFSET 0.000000 0.000000 0.000000
		CHANNELS 3 Xrotation Yrotation Zrotation
		JOINT RightUpLeg
		{
			OFFSET -12.883000 -6.336304 -1.092800
			CHANNELS 3 Xrotation Yrotation Zrotation
			JOINT RightLeg
			{
				OFFSET -0.524587 -46.096825 9.782800
				CHANNELS 3 Xrotation Yrotation Zrotation
				JOINT RightFoot
				{
					OFFSET 0.524587 -53.427383 -12.948300
					CHANNELS 3 Xrotation Yrotation Zrotation
					JOINT RightToeBase
					{
						OFFSET -0.192200 -14.009700 16.364100
						CHANNELS 3 Xrotation Yrotation Zrotation
						JOINT RightToe_End
						{
							OFFSET 1.784700 -0.561700 9.474800
							CHANNELS 3 Xrotation Yrotation Zrotation
							End Site
							{
								OFFSET 0 0 0
							}
						}
					}
				}
			}
		}
	}
	JOINT Spine_virtual
	{
		OFFSET 0.000000 0.000000 0.000000
		CHANNELS 3 Xrotation Yrotation Zrotation
		JOINT Spine
		{
			OFFSET 0.072000 7.257294 -0.789700
			CHANNELS 3 Xrotation Yrotation Zrotation
			JOINT Spine1
			{
				OFFSET 0.000000 12.508769 -0.658067
				CHANNELS 3 Xrotation Yrotation Zrotation
				JOINT Spine1_split
				{
					OFFSET 0.000000 12.508769 -0.658067
					CHANNELS 3 Xrotation Yrotation Zrotation
					JOINT Spine2
					{
						OFFSET 0.000000 12.508769 -0.658067
						CHANNELS 3 Xrotation Yrotation Zrotation
						JOINT Neck_virtual
						{
							OFFSET 0.000000 0.000000 0.000000
							CHANNELS 3 Xrotation Yrotation Zrotation
							JOINT Neck
							{
								OFFSET 0.000000 14.033295 7.520400
								CHANNELS 3 Xrotation Yrotation Zrotation
								JOINT Head
								{
									OFFSET 0.000000 8.198502 5.703100
									CHANNELS 3 Xrotation Yrotation Zrotation
									JOINT HeadTop_End
									{
										OFFSET 0.000000 17.760803 13.332701
										CHANNELS 3 Xrotation Yrotation Zrotation
										End Site
										{
											OFFSET 0 0 0
										}
									}
								}
							}
						}
						JOINT LeftShoulder_virtual
						{
							OFFSET 0.000000 0.000000 0.000000
							CHANNELS 3 Xrotation Yrotation Zrotation
							JOINT LeftShoulder
							{
								OFFSET 6.292450 5.785301 -0.669000
								CHANNELS 3 Xrotation Yrotation Zrotation
								JOINT LeftShoulder_split
								{
									OFFSET 6.292450 5.785301 -0.669000
									CHANNELS 3 Xrotation Yrotation Zrotation
									JOINT LeftArm
									{
										OFFSET 13.907140 -6.093903 1.965100
										CHANNELS 3 Xrotation Yrotation Zrotation
										JOINT LeftForeArm
										{
											OFFSET 34.140198 0.000000 0.000000
											CHANNELS 3 Xrotation Yrotation Zrotation
											JOINT LeftHand
											{
												OFFSET 40.960209 0.000000 0.000000
												CHANNELS 3 Xrotation Yrotation Zrotation
												End Site
												{
													OFFSET 0 0 0
												}
											}
										}
									}
								}
							}
						}
						JOINT RightShoulder_virtual
						{
							OFFSET 0.000000 0.000000 0.000000
							CHANNELS 3 Xrotation Yrotation Zrotation
							JOINT RightShoulder
							{
								OFFSET -6.292450 5.785301 -0.669000
								CHANNELS 3 Xrotation Yrotation Zrotation
								JOINT RightShoulder_split
								{
									OFFSET -6.292450 5.785301 -0.669000
									CHANNELS 3 Xrotation Yrotation Zrotation
									JOINT RightArm
									{
										OFFSET -13.907140 -6.093903 1.965100
										CHANNELS 3 Xrotation Yrotation Zrotation
										JOINT RightForeArm
										{
											OFFSET -34.140198 0.000000 0.000000
											CHANNELS 3 Xrotation Yrotation Zrotation
											JOINT RightHand
											{
												OFFSET -40.960209 0.000000 0.000000
												CHANNELS 3 Xrotation Yrotation Zrotation
												End Site
												{
													OFFSET 0 0 0
												}
											}
										}
									}
								}
							}
						}
					}
				}
			}
		}
	}
}
MOTION
Frames: 7
Frame Time: 0.03333333
-4.251311 112.552826 15.588284 0.000000 0.000000 0.000000 176.088151 -61.253546 178.479605 -5.315024 17.864005 15.692631 20.692973 18.369094 1.768318 -8.258421 4.506815 -23.497493 -6.427954 1.506771 -0.578886 0.000000 0.000000 0.000000 175.448463 -60.429805 177.598592 -19.648955 -17.277689 -15.574967 17.586371 -13.961205 0.610235 4.549767 0.436938 5.420330 -5.398216 -9.027232 4.062360 0.000000 0.000000 0.000000 174.700366 -64.897036 176.137465 9.405617 -0.605543 -0.021388 0.065531 -1.267339 2.104616 0.943883 -0.833477 0.026812 0.000000 0.000000 0.000000 -2.154896 -1.218012 2.508939 -4.250783 21.876929 4.340536 2.124437 23.711705 -8.071807 0.000000 0.000000 0.000000 -2.059598 -0.700768 2.116687 1.037191 1.379877 -8.481129 2.127352 -3.710005 -1.596430 -0.677006 -7.420711 -58.677889 4.920459 -16.529763 -6.098967 0.000000 0.000000 0.000000 -1.598691 -1.119054 1.687785 1.916617 -2.048705 18.750782 -2.963661 -1.306446 -0.458792 16.540671 27.562397 45.346353 16.350872 26.306832 -6.095323 0.000000 0.000000 0.000000 
-4.054724 111.783798 12.483250 0.000000 0.000000 0.000000 176.495244 -57.703952 178.958360 -3.833126 19.403022 17.182300 22.097458 20.978914 1.273061 -7.055116 5.620655 -24.431669 -5.565537 1.687704 -1.051732 0.000000 0.000000 0.000000 175.916098 -56.892395 178.059289 -21.226838 -17.796507 -14.358139 18.416400 -12.924603 0.549990 5.248051 1.691723 5.835808 -5.350980 -8.885541 3.462134 0.000000 0.000000 0.000000 175.798018 -60.955108 177.450418 9.568183 -1.147195 -0.314690 0.117991 -1.632084 2.656061 1.032797 -0.574805 -0.024654 0.000000 0.000000 0.000000 -2.189809 -1.585291 3.017053 -4.423248 19.268092 3.129010 1.436526 19.919113 -6.306991 0.000000 0.000000 0.000000 -1.941952 -1.040812 2.655531 1.101075 1.987525 -9.334307 1.710989 -3.827007 -1.452512 0.563227 -8.076029 -59.013142 4.237283 -16.484300 -5.995916 0.000000 0.000000 0.000000 -1.460174 -1.435996 2.187227 1.907116 -2.345389 18.164507 -2.790882 -1.104740 -0.379748 15.714508 28.509727 45.588002 16.056716 26.173258 -6.341620 0.000000 0.000000 0.000000 
-3.749179 110.851471 9.192417 0.000000 0.000000 0.000000 176.996716 -54.254436 179.271702 -3.954498 19.662530 19.579120 26.014461 22.623834 0.386141 -3.819247 5.554639 -24.881331 -3.304201 2.049254 -2.821208 0.000000 0.000000 0.000000 176.586632 -53.454358 178.438077 -22.126295 -18.375675 -12.465493 19.417579 -11.565044 0.376974 4.918403 2.556750 5.761030 -5.059058 -8.688718 2.886414 0.000000 0.000000 0.000000 176.854334 -57.031420 178.416398 9.894184 -1.718675 -0.502438 0.116355 -1.994664 3.092655 1.007966 -0.304561 -0.146021 0.000000 0.000000 0.000000 -2.261067 -1.962167 3.412989 -4.499005 16.321668 2.215805 0.915777 15.919841 -4.708049 0.000000 0.000000 0.000000 -1.878163 -1.393173 3.083624 1.162059 2.481378 -9.935893 1.440456 -3.949796 -1.219341 2.101125 -8.697172 -59.462281 3.658006 -16.788414 -5.984965 0.000000 0.000000 0.000000 -1.408062 -1.758398 2.606811 1.917920 -2.517158 17.777266 -2.800380 -0.854779 -0.311808 14.977032 29.435069 45.782290 15.651279 26.086630 -6.310048 0.000000 0.000000 0.000000 
-3.383846 109.963707 5.670124 0.000000 0.000000 0.000000 177.533829 -51.023630 179.382324 -5.491462 17.922753 22.510722 31.723872 22.556973 -0.388974 1.582459 3.845192 -25.288564 -1.186145 2.479424 -5.532585 0.000000 0.000000 0.000000 177.416404 -50.220066 178.752334 -22.087853 -18.894318 -10.079627 20.563377 -10.119911 0.080171 3.520858 2.828661 4.812906 -4.452960 -8.482097 2.492853 0.000000 0.000000 0.000000 177.780521 -53.173771 178.953319 10.336452 -2.204365 -0.526764 0.014993 -2.283828 3.278842 0.920738 0.059039 -0.147066 0.000000 0.000000 0.000000 -2.355924 -2.264825 3.560930 -4.417571 13.160295 1.727025 0.570898 11.895615 -3.373848 0.000000 0.000000 0.000000 -1.900317 -1.681567 3.278366 1.191233 2.813954 -10.180287 1.236832 -3.925439 -0.992311 3.706203 -8.982438 -59.978384 3.166392 -17.396256 -6.109226 0.000000 0.000000 0.000000 -1.450428 -2.026233 2.814763 1.918726 -2.563522 17.616672 -2.827246 -0.660226 -0.232889 14.341685 30.185758 45.910623 15.235323 26.077218 -6.088934 0.000000 0.000000 0.000000 
-3.006700 109.234070 2.140953 0.000000 0.000000 0.000000 178.225495 -47.925689 179.419617 -7.350788 14.289008 24.947213 37.409154 21.034935 -0.478530 7.915236 0.906304 -25.225113 -0.829543 3.009003 -8.508391 0.000000 0.000000 0.000000 178.263648 -46.966727 178.939782 -21.278776 -19.077439 -7.465813 21.927738 -8.588656 -0.261411 1.472774 2.605873 3.132446 -3.719097 -8.292823 2.292481 0.000000 0.000000 0.000000 178.546281 -49.407707 179.025801 10.797372 -2.506305 -0.350770 -0.197231 -2.454974 3.173853 0.795325 0.340111 -0.169876 0.000000 0.000000 0.000000 -2.471167 -2.431945 3.414866 -4.097164 9.966420 1.690558 0.393257 8.057908 -2.368613 0.000000 0.000000 0.000000 -1.981844 -1.853803 3.193973 1.187993 2.952704 -10.093093 1.029871 -3.677885 -0.826492 5.108180 -8.706417 -60.594576 2.784180 -18.130998 -6.398917 0.000000 0.000000 0.000000 -1.574809 -2.179873 2.753359 1.868988 -2.554647 17.619873 -2.744413 -0.507018 -0.211561 13.789445 30.722505 45.926544 14.887960 26.186889 -5.811676 0.000000 0.000000 0.000000 
-2.755698 108.793991 -1.337250 0.000000 0.000000 0.000000 178.992484 -44.831989 179.336097 -8.588221 10.489501 26.100538 41.613184 19.572307 -0.128566 12.625314 -1.510060 -22.813458 -1.522858 3.582962 -11.414272 0.000000 0.000000 0.000000 179.076837 -43.627485 178.999328 -20.131643 -18.793250 -4.971434 23.374422 -6.888078 -0.613030 -0.443127 2.125050 1.357987 -3.309162 -8.131731 2.165507 0.000000 0.000000 0.000000 179.200313 -45.711280 178.854487 11.217729 -2.539653 0.019971 -0.455822 -2.470964 2.817335 0.744247 0.503274 -0.170585 0.000000 0.000000 0.000000 -2.596438 -2.427145 3.003174 -3.480173 6.833336 2.031634 0.375175 4.501537 -1.738870 0.000000 0.000000 0.000000 -2.088933 -1.869095 2.858888 1.154323 2.873722 -9.809552 0.870933 -3.204464 -0.740481 6.270433 -7.763685 -61.305852 2.561532 -18.617311 -6.826347 0.000000 0.000000 0.000000 -1.726855 -2.175002 2.446041 1.777198 -2.578465 17.713939 -2.527665 -0.432341 -0.316907 13.350853 31.208661 45.694782 14.647472 26.291760 -5.546161 0.000000 0.000000 0.000000 
-2.634222 108.602448 -4.718323 0.000000 0.000000 0.000000 179.718342 -41.347568 179.136068 -9.437318 7.581158 25.903731 44.581160 18.599975 0.195004 14.875942 -2.555290 -18.165797 -1.239566 3.919178 -13.914993 0.000000 0.000000 0.000000 179.705678 -40.201185 178.831414 -19.081231 -17.897449 -2.754712 24.422765 -4.814081 -0.991478 -1.658482 1.714039 0.603654 -4.117122 -7.995658 1.843609 0.000000 0.000000 0.000000 179.796493 -42.018682 178.654171 11.586129 -2.290333 0.529415 -0.710377 -2.320070 2.296230 0.692674 0.592768 -0.044656 0.000000 0.000000 0.000000 -2.693690 -2.244841 2.423747 -2.576782 3.871315 2.591703 0.491480 1.293827 -1.441727 0.000000 0.000000 0.000000 -2.198154 -1.725138 2.367962 1.104724 2.637256 -9.478680 0.730271 -2.610629 -0.594825 7.297522 -6.228376 -62.123173 2.536139 -18.550099 -7.341353 0.000000 0.000000 0.000000 -1.875933 -2.013619 1.990893 1.667783 -2.681427 17.771201 -2.308656 -0.567618 -0.462596 13.130187 31.826899 45.091598 14.528623 26.237058 -5.327123 0.000000 0.000000 0.000000 
